<svg xmlns="http://www.w3.org/2000/svg" viewBox="0 0 498.4 498.4" xml:space="preserve"><path style="fill:#798482" d="M498.4 61.191c0 12-9.6 20-22.4 20H22.4c-12 0-22.4-8-22.4-20 .8-12 10.4-20 22.4-20h454.4c12 0 21.6 8 21.6 20m-264.8 256.8c-12 0-24-9.6-24-22.4v-101.6c0-12 12-22.4 24-22.4s24 9.6 24 22.4v102.4c0 12-12 21.6-24 21.6"/><path style="fill:#798482" d="M473.6 209.191c-8 0-16-9.6-16-22.4v-117.6c0-12 8-22.4 20-22.4 12 .8 20 10.4 20 22.4v118.4c0 12-8 21.6-24 21.6"/><path style="fill:#fcb12b" d="M441.6 102.791c0 10.4-8 18.4-18.4 18.4H44c-10.4 0-18.4-8-18.4-18.4v-85.6c0-10.4 8-16 18.4-16h380c9.6 0 17.6 5.6 17.6 16z"/><path style="fill:#ce640d" d="M441.6 17.191v85.6c0 10.4-8 18.4-18.4 18.4H44c-10.4 0-18.4-8-18.4-18.4v-85.6"/><path style="fill:#e87b18" d="M25.6 17.191h416v72h-416z"/><path style="fill:#0c537a" d="M265.6 489.191c0 8-3.2 8-12 8h-40.8c-8 0-12 .8-12-8v-189.6c0-8 3.2-18.4 12-18.4h40.8c8 0 12 10.4 12 18.4z"/><path style="fill:#00233f" d="M209.6 281.191h44c8 0 12 10.4 12 18.4v189.6c0 8-3.2 8-12 8h-44"/><path style="fill:#fcb12b" d="M281.6 289.191c0 4-3.2 8-7.2 8h-81.6c-4 0-7.2-4-7.2-8s3.2-8 7.2-8h81.6c4 0 7.2 4 7.2 8"/><path style="fill:#96a3a0" d="M498.4 193.191c0 12-9.6 24-22.4 24H238.4c-12 0-22.4-12-22.4-24s9.6-24 22.4-24h238.4c12 0 21.6 12 21.6 24"/></svg>