<svg viewBox="0 -1.01 20.244 20.244" width="20px" height="20px" xmlns="http://www.w3.org/2000/svg" fill="#000000"><g id="SVGRepo_bgCarrier" stroke-width="0"></g><g id="SVGRepo_tracerCarrier" stroke-linecap="round" stroke-linejoin="round"></g><g id="SVGRepo_iconCarrier"> <g id="eraser-5" transform="translate(-1.926 -2.881)"> <path id="secondary" fill="#7389AE" d="M3.29,10,9,4.29a1,1,0,0,1,1.41,0l5.4,5.4L8.69,16.76l-5.4-5.4A1,1,0,0,1,3.29,10Z"></path> <path id="primary" d="M3.29,10,9,4.29a1,1,0,0,1,1.41,0l10.3,10.35a1,1,0,0,1,0,1.41l-3.66,3.66a1,1,0,0,1-.71.29H11.93L3.29,11.36A1,1,0,0,1,3.29,10Zm12.47-.26,5,5a1,1,0,0,1,0,1.41L17.1,19.81a1,1,0,0,1-.71.29H11.93L8.69,16.76ZM6,20h6" fill="none" stroke="#000000" stroke-linecap="round" stroke-linejoin="round" stroke-width="2"></path> </g> </g></svg>