<svg version="1.1" width="20px" height="20px" id="Uploaded to svgrepo.com" xmlns="http://www.w3.org/2000/svg" xmlns:xlink="http://www.w3.org/1999/xlink" viewBox="0 0 32 32" xml:space="preserve" fill="#000000"><g id="SVGRepo_bgCarrier" stroke-width="0"></g><g id="SVGRepo_tracerCarrier" stroke-linecap="round" stroke-linejoin="round"></g><g id="SVGRepo_iconCarrier"> <style type="text/css"> .avocado_een{fill:#231F20;} .avocado_zeven{fill:#<svg version="1.0" id="Layer_1" xmlns="http://www.w3.org/2000/svg" xmlns:xlink="http://www.w3.org/1999/xlink" viewBox="0 0 64 64" enable-background="new 0 0 64 64" xml:space="preserve" fill="#000000"><g id="SVGRepo_bgCarrier" stroke-width="0"></g><g id="SVGRepo_tracerCarrier" stroke-linecap="round" stroke-linejoin="round"></g><g id="SVGRepo_iconCarrier"> <g> <path fill="#F9EBB2" d="M3.001,61.999c-0.553,0-1.001-0.446-1-0.999l0.001-13.141L16.143,62L3.001,61.999z"></path> <path fill="#F76D57" d="M61.414,16.729l-4.259,4.259L43.013,6.845l4.258-4.257c0.782-0.782,2.049-0.782,2.829-0.002L61.414,13.9 C62.195,14.682,62.194,15.947,61.414,16.729z"></path> <g> <rect x="37.256" y="14.744" transform="matrix(0.7071 0.7071 -0.7071 0.7071 25.6812 -28.5106)" fill="#F9EBB2" width="20.001" height="4"></rect> </g> <g> <rect x="-1.848" y="28.74" transform="matrix(0.7071 -0.7071 0.7071 0.7071 -15.6016 24.8148)" fill="#7389AE" width="48.002" height="5.001"></rect> <rect x="8.76" y="39.348" transform="matrix(0.7071 -0.7071 0.7071 0.7071 -19.9956 35.4215)" fill="#7389AE" width="48" height="4.999"></rect> <rect x="3.456" y="33.544" transform="matrix(0.7071 -0.7071 0.7071 0.7071 -17.7985 30.1183)" fill="#7389AE" width="48.001" height="5.999"></rect> </g> <rect x="-1.847" y="28.74" transform="matrix(-0.7071 0.7071 -0.7071 -0.7071 59.9084 37.6651)" opacity="0.2" fill="#231F20" width="48.001" height="5"></rect> <rect x="30.26" y="17.847" transform="matrix(0.7071 0.7071 -0.7071 0.7071 39.1859 -10.9078)" opacity="0.2" fill="#231F20" width="4.999" height="48"></rect> <path fill="#394240" d="M62.828,12.486L51.514,1.172c-1.562-1.562-4.093-1.562-5.657,0.001c0,0-44.646,44.646-45.255,45.255 C-0.006,47.035,0,48,0,48l0.001,13.999c0,1.105,0.896,2,1.999,2.001h14c0,0,0.963,0.008,1.572-0.602s45.256-45.257,45.256-45.257 C64.392,16.579,64.392,14.05,62.828,12.486z M2.001,61v-1.583l2.582,2.582H3.001C2.448,61.999,2,61.553,2.001,61z M7.411,62 l-5.41-5.41l0.001-8.73L16.143,62H7.411z M52.912,25.23L38.771,11.088l-1.414,1.414l3.535,3.535L6.951,49.979l1.414,1.414 l33.94-33.941l4.243,4.243l-33.941,33.94l1.414,1.415l33.941-33.94l3.535,3.535L17.557,60.586L3.414,46.443L41.599,8.259 l14.143,14.143L52.912,25.23z M61.414,16.729l-4.259,4.259L43.013,6.845l4.258-4.257c0.782-0.782,2.049-0.782,2.829-0.002 L61.414,13.9C62.195,14.682,62.194,15.947,61.414,16.729z"></path> </g> </g></svg>;} .avocado_acht{fill:#7389AE;} .avocado_achttien{fill:#D1712A;} .st0{fill:#E0A838;} .st1{fill:#EAD13F;} .st2{fill:#FFFAEE;} .st3{fill:#DBD2C1;} .st4{fill:#3D3935;} .st5{fill:#6F9B45;} .st6{fill:#CC4121;} .st7{fill:#E598A3;} .st8{fill:#D36781;} .st9{fill:#8D3E93;} .st10{fill:#BF63C1;} .st11{fill:#AF9480;} .st12{fill:#716558;} .st13{fill:#0E608E;} .st14{fill:#248EBC;} .st15{fill:#C3CC6A;} </style> <g> <g> <polygon class="avocado_acht" points="30.293,18 17,4.707 5.696,15.989 19,29.293 "></polygon> </g> <g> <path class="avocado_achttien" d="M12.198,9.5H8.5c-3.314,0-6,2.686-6,6V28c0,0.828,0.672,1.5,1.5,1.5h0 c0.828,0,1.5-0.672,1.5-1.5V15.989l0.196,0L12.198,9.5z"></path> </g> <circle class="avocado_zeven" cx="13.5" cy="15.5" r="2.5"></circle> <path class="avocado_een" d="M31,18L21,8V5c0-2.206-1.794-4-4-4s-4,1.794-4,4v3l-1,1H8.5C4.916,9,2,11.916,2,15.5V28 c0,1.103,0.897,2,2,2s2-0.897,2-2V17l13,13L31,18z M14,5c0-1.654,1.346-3,3-3s3,1.346,3,3v2l-3-3l-3,3V5z M5,28 c0,0.551-0.448,1-1,1s-1-0.449-1-1V15.5C3,12.467,5.468,10,8.5,10H11l-6,6V28z M13,9.414V15.5c0,0.276,0.224,0.5,0.5,0.5 s0.5-0.224,0.5-0.5V8.414l3-3L29.586,18L19,28.586L6.414,16L13,9.414z"></path> </g> </g></svg>